<svg version="1.1" id="Layer_1" xmlns="http://www.w3.org/2000/svg" xmlns:xlink="http://www.w3.org/1999/xlink" x="0px" y="0px"
	 width="100%" viewBox="0 0 232 232" enable-background="new 0 0 232 232" xml:space="preserve">
<path fill="#FEFDFD" opacity="1.000000" stroke="none" 
	d="
M1.000000,66.000000 
	C1.000000,44.000004 1.000000,22.500008 1.000000,1.000009 
	C78.333321,1.000006 155.666641,1.000006 232.999969,1.000003 
	C232.999969,78.333305 232.999969,155.666611 232.999985,232.999939 
	C155.666718,232.999954 78.333427,232.999954 1.000068,232.999969 
	C1.000000,177.500000 1.000000,122.000000 1.000000,66.000000 
M193.928329,45.524498 
	C193.789871,45.215561 193.557983,45.014229 193.094208,44.899139 
	C193.094208,44.899139 193.125626,44.762623 193.076416,44.191658 
	C192.702225,43.800148 192.328033,43.408642 191.526855,42.743160 
	C191.256058,42.319500 190.985275,41.895840 190.830719,40.707912 
	C189.633698,39.378914 188.436691,38.049919 187.080078,36.039486 
	C182.710526,31.297491 179.396225,25.266890 171.748322,23.734688 
	C171.498581,23.481869 171.248840,23.229048 170.915421,22.287622 
	C169.945587,21.861467 168.975739,21.435312 167.998032,21.002935 
	C167.998032,21.002935 167.989182,20.997765 167.903366,20.286407 
	C166.891037,19.885437 165.878693,19.484465 164.318573,18.974936 
	C163.873047,18.651039 163.427521,18.327145 162.742844,17.486891 
	C162.248596,17.219957 161.754333,16.953024 160.939362,16.064629 
	C159.649796,15.694993 158.360214,15.325356 157.022064,15.005836 
	C157.022064,15.005836 157.035797,14.937413 156.884445,14.210446 
	C155.526535,13.842287 154.168625,13.474128 152.382629,13.060254 
	C152.382629,13.060254 152.017471,12.832186 151.657242,12.352326 
	C151.085541,12.244296 150.513855,12.136265 149.452301,11.982824 
	C149.452301,11.982824 149.017288,11.753106 148.632858,11.296558 
	C148.057953,11.213686 147.483063,11.130813 146.437454,11.001076 
	C146.437454,11.001076 146.020294,10.778052 145.644699,10.315442 
	C145.074554,10.232722 144.504395,10.150002 143.995468,9.999359 
	C143.995468,9.999359 143.948318,10.077324 143.816833,9.289212 
	C140.831177,8.886322 137.845505,8.483432 134.152344,8.096369 
	C133.455475,7.981098 132.758621,7.865828 131.851074,7.067990 
	C129.892563,7.062004 127.934044,7.056018 125.145645,7.085491 
	C123.765625,7.009164 122.385605,6.932837 120.613358,6.412261 
	C119.740219,6.560734 118.867073,6.709208 117.153297,7.008866 
	C115.446365,7.042071 113.739441,7.075275 111.653282,6.577999 
	C110.081512,6.971169 108.509750,7.364338 106.942482,7.923666 
	C106.942482,7.923666 107.031761,8.063877 106.360199,7.925078 
	C105.903259,7.918314 105.446320,7.911550 104.843582,7.218882 
	C101.990822,4.983702 100.206444,6.030173 99.068787,9.061557 
	C99.068787,9.061557 99.080612,9.083408 98.500023,8.967586 
	C97.995293,9.216273 97.490562,9.464961 96.448357,9.908428 
	C96.257858,9.913464 96.067368,9.918499 95.282440,9.636448 
	C94.186752,10.097171 93.091064,10.557893 91.722633,11.220973 
	C91.722633,11.220973 91.383057,11.226278 90.840584,11.148081 
	C90.553726,11.353915 90.266869,11.559750 89.502563,12.024793 
	C89.268005,12.279378 89.033447,12.533964 88.981010,12.885023 
	C88.981010,12.885023 88.827408,12.747611 88.165817,12.689836 
	C87.518066,12.831141 86.870316,12.972445 85.722916,13.111855 
	C85.378494,13.208261 85.132767,13.419488 84.516197,14.010923 
	C84.167503,14.092244 83.818817,14.173564 82.893051,14.181767 
	C82.590309,14.403540 82.287575,14.625313 81.499420,15.223207 
	C80.747726,15.525665 79.996033,15.828124 78.723434,16.153950 
	C78.475998,16.385155 78.228561,16.616360 77.500275,17.224541 
	C76.943680,17.461414 76.387093,17.698286 75.478943,18.004622 
	C75.244087,18.102079 75.081123,18.269514 74.491150,18.819147 
	C74.300903,18.867041 74.110649,18.914936 73.156013,18.948713 
	C70.718384,20.584763 68.280754,22.220810 65.455666,24.116642 
	C65.211166,24.313568 64.998421,24.540300 64.434326,25.052208 
	C64.180008,25.246454 64.016052,25.499290 63.774445,26.291883 
	C63.765747,26.461550 63.757050,26.631214 63.930084,26.943220 
	C63.930084,26.943220 63.782387,26.765812 63.183620,26.832361 
	C62.495071,27.241838 61.806519,27.651316 60.453407,28.075129 
	C59.961025,28.703936 59.468643,29.332743 59.001640,29.999201 
	C59.001640,29.999201 58.959972,29.981329 58.491123,30.110226 
	C58.209675,30.286066 57.988026,30.518850 57.427578,31.070568 
	C57.163277,31.276178 57.006416,31.544567 56.823711,32.372669 
	C56.823952,32.544170 56.824188,32.715672 56.936024,32.939262 
	C56.936024,32.939262 56.870628,32.834900 56.334507,32.829163 
	C56.159554,32.865639 55.984596,32.902115 55.408894,33.110088 
	C55.162273,33.290390 55.006775,33.529869 54.679314,34.290104 
	C54.406387,34.511066 54.133457,34.732029 53.435703,35.138203 
	C53.170654,35.329605 53.010483,35.586426 52.985077,35.981224 
	C52.985077,35.981224 52.910248,35.957588 52.467392,36.143440 
	C52.189705,36.339539 52.024334,36.605480 51.999413,36.997383 
	C51.999413,36.997383 51.945801,36.964741 51.195534,36.983883 
	C50.536018,38.052311 49.876507,39.120743 49.071274,40.157524 
	C49.071274,40.157524 49.222988,40.204197 48.483208,40.168041 
	C48.010979,41.152863 47.538750,42.137684 46.783463,43.725327 
	C35.705425,58.797436 29.525921,75.726311 29.365910,94.378036 
	C28.993057,137.840149 29.168379,181.306793 28.997080,224.771133 
	C28.982801,228.393799 30.294659,229.248123 33.666985,229.185135 
	C44.654865,228.979980 55.655720,228.812332 66.635712,229.148544 
	C71.374306,229.293671 72.444313,227.746796 72.433823,223.235779 
	C72.336685,181.436417 72.499252,139.636551 72.516220,97.836784 
	C72.521942,83.737068 77.586624,71.903587 87.806770,62.220123 
	C88.733604,61.341965 89.400398,60.189354 90.050636,59.039089 
	C90.050636,59.039089 90.151741,59.194920 90.691071,59.064571 
	C90.878113,58.762184 91.065163,58.459797 91.710777,57.976345 
	C91.710777,57.976345 92.008682,57.583511 92.614624,57.556061 
	C93.118111,57.060795 93.621597,56.565533 94.608116,56.023979 
	C94.608116,56.023979 94.976509,55.708141 95.714706,55.778751 
	C103.838921,52.354908 112.030014,49.702976 121.111115,49.902931 
	C142.967285,50.384167 162.487289,67.317467 166.028107,89.381546 
	C169.626373,111.803749 156.964874,133.767578 135.724823,141.086182 
	C135.384537,141.163895 135.138153,141.359726 134.426590,141.938965 
	C134.020340,141.998901 133.614075,142.058853 132.595810,142.005859 
	C132.062851,142.260406 131.529892,142.514969 130.372940,143.002014 
	C129.934555,143.066299 129.496185,143.130585 128.760147,142.658966 
	C127.506104,143.045944 126.252068,143.432938 124.097763,144.034821 
	C120.415909,143.938629 116.734047,143.842438 112.910828,143.127289 
	C111.927216,143.127914 110.943604,143.128540 109.291122,143.103790 
	C108.861809,142.986481 108.432503,142.869171 107.598167,142.305511 
	C107.016792,142.230026 106.435417,142.154541 105.415695,142.069931 
	C105.415695,142.069931 105.036598,141.849655 104.847771,141.130676 
	C103.464371,140.809143 102.080971,140.487610 100.313484,140.113144 
	C100.313484,140.113144 100.009590,139.872391 99.685814,139.422852 
	C99.335884,139.347443 98.985947,139.272034 98.276787,139.158310 
	C98.276787,139.158310 97.994415,138.932953 97.697693,138.477921 
	C97.361397,138.380280 97.025101,138.282639 96.320557,138.222931 
	C96.320557,138.222931 95.972099,138.097977 95.804123,137.720062 
	C95.596306,137.922424 95.388489,138.124786 95.085754,138.898438 
	C94.974594,139.268066 94.863434,139.637711 94.354492,140.308929 
	C94.482765,140.873901 94.611038,141.438858 94.884750,142.658188 
	C94.832512,143.099106 94.780273,143.540009 94.425377,144.172989 
	C94.529762,144.455460 94.634155,144.737946 94.902168,145.941696 
	C94.891273,157.956894 94.880386,169.972107 94.538857,182.172531 
	C94.664932,182.449738 94.791000,182.726944 95.228996,183.449875 
	C95.487122,183.704468 95.745255,183.959045 96.405884,184.682495 
	C97.003227,184.751556 97.600578,184.820618 98.815460,184.905731 
	C99.209885,185.020355 99.604309,185.134964 100.447861,185.704300 
	C101.069389,185.740662 101.690926,185.777039 102.997993,185.812057 
	C103.667259,185.953918 104.336525,186.095779 105.555779,186.720932 
	C106.776573,186.774551 107.997360,186.828171 109.978905,186.824326 
	C110.986702,186.947403 111.994507,187.070465 113.627075,187.709991 
	C117.415794,187.555603 121.204521,187.401215 125.641579,187.093781 
	C126.083885,187.106247 126.526184,187.118713 127.152794,187.839355 
	C131.521912,188.864044 135.721130,189.090698 139.673355,185.063187 
	C140.103271,185.006363 140.533173,184.949539 141.396500,185.451340 
	C142.570419,184.927582 143.744324,184.403824 145.015503,183.955917 
	C145.015503,183.955917 144.904785,183.902878 145.743927,184.011841 
	C150.561249,182.082565 155.378571,180.153290 160.946747,178.082672 
	C163.855865,178.048340 166.506577,177.629684 167.308136,173.572128 
	C167.772873,173.326324 168.237610,173.080521 169.512115,172.942764 
	C174.855774,171.454742 179.098663,168.661606 181.379211,162.651733 
	C182.004410,162.136185 182.629593,161.620621 183.936981,161.064316 
	C184.656082,160.115067 185.375168,159.165833 186.368134,157.687973 
	C186.919083,157.128204 187.470032,156.568436 188.502823,155.797546 
	C188.650192,155.490387 188.797546,155.183228 189.211182,154.311005 
	C190.148895,153.210800 191.086609,152.110596 192.509247,150.771362 
	C192.642776,150.449051 192.776321,150.126740 193.072281,149.270111 
	C193.443817,148.864380 193.815353,148.458633 194.615143,147.823944 
	C194.872925,147.587372 194.988495,147.294647 194.997864,147.000275 
	C194.997864,147.000275 194.945526,146.960968 195.665970,146.894485 
	C196.086685,145.883560 196.507401,144.872635 196.997986,143.435120 
	C197.096222,143.152191 197.269043,142.926346 198.316498,142.808044 
	C198.893967,141.232071 199.471436,139.656097 199.999924,138.025711 
	C199.999924,138.025711 200.072861,138.032028 200.553543,137.752762 
	C200.655685,137.409637 200.757812,137.066513 200.876617,136.328369 
	C200.876617,136.328369 201.105408,136.005905 201.574951,135.666977 
	C201.639236,135.298019 201.703506,134.929062 201.795563,134.226746 
	C201.795563,134.226746 202.045715,134.004669 202.572861,133.678482 
	C202.702682,133.094101 202.832520,132.509705 203.002823,131.448120 
	C203.002823,131.448120 203.275909,131.054688 203.970108,130.853058 
	C204.271332,129.488937 204.572571,128.124802 204.837891,126.363152 
	C204.837891,126.363152 205.002945,125.999718 205.685455,125.883934 
	C206.123337,124.922478 206.561234,123.961014 207.027100,122.242867 
	C206.964005,121.742432 206.900909,121.241989 206.846054,119.977127 
	C207.318863,117.992058 207.791672,116.006989 208.774765,113.730667 
	C208.823837,112.810791 208.872925,111.890915 208.865280,110.183586 
	C209.017532,109.147499 209.169785,108.111420 210.050140,106.801010 
	C211.439453,99.798897 212.051422,92.827888 209.004868,85.354752 
	C208.994385,84.907669 208.983887,84.460594 209.486450,83.646179 
	C209.046936,82.425186 208.607437,81.204201 207.900925,79.274307 
	C207.524933,77.300430 207.148941,75.326546 206.990768,72.661316 
	C208.062561,70.405609 207.564255,68.792068 204.863968,67.647385 
	C204.863968,67.647385 204.849182,67.241890 204.973846,66.586319 
	C204.650543,66.056206 204.327255,65.526085 203.643600,64.500473 
	C203.393692,63.727444 203.143784,62.954411 202.992462,61.534199 
	C202.660217,61.022800 202.327957,60.511402 201.550919,59.627079 
	C201.273926,58.907768 200.996918,58.188461 200.779343,56.863617 
	C200.517502,56.576015 200.255661,56.288414 199.588318,55.834553 
	C199.588318,55.834553 199.151123,55.803741 199.075806,55.890659 
	C199.075806,55.890659 199.189713,55.874748 199.237656,55.247784 
	C199.141785,54.840446 199.045929,54.433109 199.436920,53.695538 
	C198.918030,53.160000 198.399139,52.624462 197.977417,51.992329 
	C197.977417,51.992329 197.898331,52.103653 198.001083,51.379536 
	C197.326401,50.589054 196.651718,49.798576 195.542023,48.697815 
	C195.314011,48.219395 195.085999,47.740978 194.818695,46.707672 
	C194.548096,46.472061 194.277481,46.236454 193.999374,46.000160 
	C193.999374,46.000160 194.001038,45.991962 193.928329,45.524498 
M103.512413,115.339645 
	C104.342415,115.890800 105.172417,116.441948 106.416954,117.548195 
	C115.383392,122.680496 124.262924,123.126083 133.631546,116.940933 
	C134.157166,116.343658 134.682800,115.746384 135.079208,115.078293 
	C135.079208,115.078293 135.163010,115.199493 135.826553,115.059433 
	C147.567749,104.335632 146.525330,85.996422 133.476089,77.177444 
	C125.017578,71.460991 115.986298,71.012375 107.173012,76.241295 
	C99.401871,80.851913 94.812447,87.589424 95.447884,97.759720 
	C95.534645,98.181694 95.621399,98.603668 95.497696,99.664093 
	C95.611206,100.091255 95.724716,100.518425 95.599319,101.335236 
	C95.798683,101.878914 95.998055,102.422585 96.183311,103.708588 
	C96.406578,104.141022 96.629845,104.573463 96.693451,105.301109 
	C96.719406,105.587090 96.874840,105.710892 97.298477,106.439850 
	C97.450218,106.650887 97.601952,106.861931 97.556320,107.397430 
	C97.603607,107.707947 97.783974,107.850983 98.049660,107.900154 
	C98.049660,107.900154 98.136581,107.912209 98.117622,108.600418 
	C99.343681,110.136276 100.569733,111.672134 101.978065,113.036568 
	C101.978065,113.036568 101.774879,113.182587 101.884796,113.749146 
	C102.322136,114.104675 102.759476,114.460213 103.512413,115.339645 
M59.429859,26.486799 
	C59.429859,26.486799 59.525990,26.433468 59.429859,26.486799 
z"/>
<path fill="#E41527" opacity="1.000000" stroke="none" 
	d="
M162.981995,18.003246 
	C163.427521,18.327145 163.873047,18.651039 164.745667,19.308985 
	C166.111557,20.094610 167.050369,20.546188 167.989182,20.997765 
	C167.989182,20.997765 167.998032,21.002935 168.130798,21.292473 
	C169.175415,22.046749 170.087265,22.511490 170.999100,22.976231 
	C171.248840,23.229048 171.498581,23.481869 172.066071,24.148331 
	C175.965378,27.987532 179.546921,31.413090 183.193893,35.093918 
	C183.535934,35.553120 183.812576,35.757057 184.048767,35.960083 
	C184.008347,35.959167 184.067062,35.903549 184.056152,36.259659 
	C185.758820,38.023819 187.472382,39.431873 189.198837,40.844383 
	C189.211716,40.848843 189.226379,40.819183 189.149872,41.191410 
	C191.001724,45.124298 192.755478,48.797150 194.938141,52.194431 
	C195.910095,53.707264 197.745956,54.665039 199.189713,55.874748 
	C199.189713,55.874748 199.075806,55.890659 199.040619,56.258427 
	C199.446548,58.540859 199.573059,60.600941 200.379883,62.346577 
	C205.578354,73.593842 207.988281,85.561134 207.770477,97.752167 
	C207.622482,106.034988 205.303436,114.274506 204.038208,122.546074 
	C203.813690,124.013786 203.996201,125.543755 203.986755,127.320511 
	C203.735504,128.074799 203.488251,128.553543 202.872833,129.062134 
	C201.261856,131.996262 200.019058,134.900528 198.462616,137.928284 
	C192.104324,145.440262 186.038986,152.812073 180.047729,160.243607 
	C179.461426,160.970825 179.330887,162.065506 178.642883,163.037750 
	C176.909988,163.904541 175.341507,164.522522 174.171326,165.580902 
	C171.096893,168.361542 168.195892,171.333939 165.212845,174.218353 
	C165.199890,174.206757 165.169601,174.190964 164.778259,174.117889 
	C162.937653,175.052063 161.488388,176.059296 160.043320,177.031769 
	C160.047501,176.996994 160.080704,177.058685 159.721893,177.013229 
	C158.643692,177.418732 157.924332,177.869705 157.211792,178.347748 
	C157.218597,178.374817 157.222931,178.430466 156.843292,178.296997 
	C154.253876,178.807617 151.993073,179.314972 149.842499,180.117661 
	C133.982468,186.037262 117.727623,186.259048 101.261543,183.602951 
	C98.161682,183.102905 96.845863,181.461075 96.900543,178.125839 
	C97.078072,167.298004 96.949814,156.465363 96.986130,145.634720 
	C96.989777,144.546219 97.311737,143.458771 97.577080,141.801956 
	C99.809433,142.505249 101.659187,143.082870 103.505737,143.670547 
	C124.437767,150.332306 149.504990,143.034775 161.326401,123.009293 
	C171.797989,105.270401 171.737793,87.414490 160.401657,70.199677 
	C148.281372,51.794071 129.095154,44.811722 108.018814,49.360474 
	C103.428543,50.351162 99.311501,53.534603 94.976509,55.708145 
	C94.976509,55.708141 94.608116,56.023979 94.085846,56.050735 
	C93.045280,56.579502 92.526985,57.081509 92.008682,57.583511 
	C92.008682,57.583511 91.710777,57.976345 91.212814,58.129906 
	C90.527145,58.587288 90.339439,58.891102 90.151741,59.194916 
	C90.151741,59.194920 90.050636,59.039089 89.764862,59.100533 
	C78.373856,66.782692 72.128235,77.549011 71.195335,90.728088 
	C70.175278,105.138466 70.199295,119.636078 70.127640,134.097458 
	C69.983994,163.083023 70.006500,192.070236 70.167397,221.055618 
	C70.192360,225.551407 68.970467,227.328033 64.239265,227.168533 
	C55.087440,226.859985 45.909672,226.857468 36.758781,227.182373 
	C32.242268,227.342728 30.810638,226.103683 30.832813,221.390747 
	C31.026403,180.244431 30.826242,139.096252 31.029177,97.950027 
	C31.107162,82.138100 34.761837,67.104965 42.987583,53.373371 
	C45.174702,49.722321 47.147575,45.942924 49.526737,42.095886 
	C52.179981,38.924511 54.525307,35.879704 56.870628,32.834900 
	C56.870628,32.834900 56.936024,32.939262 57.153351,32.882839 
	C57.564232,32.533897 57.757778,32.241379 57.961048,31.968731 
	C57.970772,31.988604 57.939423,31.969812 58.196259,31.904701 
	C58.631557,31.548183 58.810020,31.256779 58.994255,30.979017 
	C59.000023,30.992661 58.970032,30.978891 59.340630,31.005089 
	C61.068279,29.609463 62.425331,28.187637 63.782387,26.765812 
	C63.782387,26.765812 63.930084,26.943220 64.117210,26.863224 
	C64.504852,26.491623 64.705368,26.200016 64.916367,25.927071 
	C64.926842,25.945734 64.909500,25.925850 65.277603,25.955416 
	C66.371933,25.260500 67.098145,24.536016 67.838348,23.892910 
	C67.852325,23.974287 67.853867,23.809851 68.181030,23.854967 
	C68.864838,23.460133 69.221481,23.020184 69.618942,22.583988 
	C69.659775,22.587742 69.704071,22.518745 69.975601,22.583321 
	C70.447258,22.363960 70.647385,22.080025 70.921310,21.895384 
	C70.995110,21.994680 70.836075,21.805096 71.203789,21.872246 
	C72.346054,21.247131 73.120598,20.554871 73.921432,19.929394 
	C73.947723,19.996180 73.860146,19.882437 74.250900,19.933767 
	C77.423172,18.663845 80.204697,17.342592 83.339920,15.883022 
	C85.404884,14.745674 87.116150,13.746642 88.827408,12.747610 
	C88.827408,12.747611 88.981010,12.885023 89.286018,12.936264 
	C90.654510,12.486158 91.718002,11.984812 92.834930,11.513946 
	C92.888374,11.544425 92.835609,11.655585 93.186188,11.780907 
	C94.313065,11.510149 95.089355,11.114069 95.834900,10.701715 
	C95.804146,10.685440 95.779472,10.620381 96.200012,10.753130 
	C99.379974,10.170944 102.139389,9.456010 104.838196,8.770132 
	C104.777580,8.799191 104.744667,8.668838 105.099564,8.803151 
	C105.957375,8.963589 106.460274,8.989712 107.434113,9.023516 
	C120.686790,8.832785 133.478226,8.348688 145.836807,12.734320 
	C149.511826,14.038456 153.375458,14.811096 157.141541,15.843561 
	C157.130402,15.859853 157.102112,15.837427 157.127136,16.234690 
	C158.582291,17.041805 160.012421,17.451656 161.701080,17.901804 
	C162.300415,17.962482 162.641205,17.982864 162.981995,18.003246 
z"/>
<path fill="#E41327" opacity="1.000000" stroke="none" 
	d="
M97.753693,107.072975 
	C97.601952,106.861931 97.450218,106.650887 97.291138,105.938362 
	C97.283806,105.436874 97.366699,105.184135 97.519547,104.969872 
	C97.505844,104.149345 97.339287,103.543076 97.135406,102.618149 
	C97.074242,101.872055 97.050415,101.444626 97.245087,100.815338 
	C96.878448,100.084198 96.293297,99.554924 95.708153,99.025642 
	C95.621399,98.603668 95.534645,98.181694 95.907623,97.282791 
	C96.885529,95.824135 97.721909,94.888512 97.871887,93.853416 
	C99.161316,84.954330 106.279579,76.863503 114.565010,75.053894 
	C122.814613,73.252113 132.795074,76.871429 137.169647,83.251251 
	C143.362732,92.283165 143.701187,100.741081 138.323547,109.206673 
	C137.116531,111.106773 136.208618,113.196869 135.163025,115.199493 
	C135.163010,115.199493 135.079208,115.078293 134.843933,115.114464 
	C134.068451,115.401939 133.528244,115.653244 132.598450,115.930740 
	C127.083466,116.985291 121.979019,118.652908 116.825462,118.821747 
	C113.271515,118.938194 109.649597,116.980385 106.045166,115.961594 
	C106.032265,115.973602 106.031044,115.964233 105.920547,115.751556 
	C105.611336,115.272232 105.351707,115.094620 105.024292,114.993378 
	C105.017418,114.980721 104.991020,114.969177 104.842850,114.728485 
	C104.188675,114.248260 103.682686,114.008736 102.988922,113.575035 
	C102.459061,113.314774 102.116966,113.248680 101.774879,113.182587 
	C101.774879,113.182587 101.978065,113.036568 101.976151,112.829605 
	C101.983757,112.419121 101.993294,112.215599 101.995949,111.659592 
	C101.334938,110.534035 100.680809,109.760956 100.017365,108.992813 
	C100.008041,108.997742 100.007210,108.977722 99.903198,108.750443 
	C99.532631,108.329971 99.266075,108.136772 98.784866,107.906006 
	C98.570213,107.868439 98.136581,107.912209 98.136581,107.912209 
	C98.136581,107.912209 98.049660,107.900154 98.083000,107.713257 
	C98.073174,107.313019 97.952286,107.161888 97.753693,107.072975 
z"/>
<path fill="#C84756" opacity="1.000000" stroke="none" 
	d="
M49.218815,42.222458 
	C47.147575,45.942924 45.174702,49.722321 42.987583,53.373371 
	C34.761837,67.104965 31.107162,82.138100 31.029177,97.950027 
	C30.826242,139.096252 31.026403,180.244431 30.832813,221.390747 
	C30.810638,226.103683 32.242268,227.342728 36.758781,227.182373 
	C45.909672,226.857468 55.087440,226.859985 64.239265,227.168533 
	C68.970467,227.328033 70.192360,225.551407 70.167397,221.055618 
	C70.006500,192.070236 69.983994,163.083023 70.127640,134.097458 
	C70.199295,119.636078 70.175278,105.138466 71.195335,90.728088 
	C72.128235,77.549011 78.373856,66.782692 89.833519,59.163086 
	C89.400398,60.189354 88.733604,61.341965 87.806770,62.220123 
	C77.586624,71.903587 72.521942,83.737068 72.516220,97.836784 
	C72.499252,139.636551 72.336685,181.436417 72.433823,223.235779 
	C72.444313,227.746796 71.374306,229.293671 66.635712,229.148544 
	C55.655720,228.812332 44.654865,228.979980 33.666985,229.185135 
	C30.294659,229.248123 28.982801,228.393799 28.997080,224.771133 
	C29.168379,181.306793 28.993057,137.840149 29.365910,94.378036 
	C29.525921,75.726311 35.705425,58.797436 47.179947,43.324959 
	C47.972023,42.549969 48.367622,42.175354 48.878494,41.904686 
	C48.993763,42.008633 49.218815,42.222458 49.218815,42.222458 
z"/>
<path fill="#C33A4A" opacity="1.000000" stroke="none" 
	d="
M95.345612,55.743446 
	C99.311501,53.534603 103.428543,50.351162 108.018814,49.360474 
	C129.095154,44.811722 148.281372,51.794071 160.401657,70.199677 
	C171.737793,87.414490 171.797989,105.270401 161.326401,123.009293 
	C149.504990,143.034775 124.437767,150.332306 103.505737,143.670547 
	C101.659187,143.082870 99.809433,142.505249 97.577080,141.801956 
	C97.311737,143.458771 96.989777,144.546219 96.986130,145.634720 
	C96.949814,156.465363 97.078072,167.298004 96.900543,178.125839 
	C96.845863,181.461075 98.161682,183.102905 101.261543,183.602951 
	C117.727623,186.259048 133.982468,186.037262 149.842499,180.117661 
	C151.993073,179.314972 154.253876,178.807617 156.612854,178.550507 
	C152.809647,180.592621 148.857224,182.247757 144.904785,183.902878 
	C144.904785,183.902878 145.015503,183.955917 144.615570,183.887573 
	C143.131470,184.177048 142.047272,184.534882 140.963089,184.892715 
	C140.533173,184.949539 140.103271,185.006363 138.967926,185.140533 
	C134.497833,185.855637 130.733154,186.493408 126.968491,187.131165 
	C126.526184,187.118713 126.083885,187.106247 124.863846,187.086731 
	C120.391502,187.117645 116.696907,187.155594 113.002304,187.193527 
	C111.994507,187.070465 110.986702,186.947403 109.295456,186.649170 
	C107.409935,186.395233 106.207863,186.316437 105.005791,186.237640 
	C104.336525,186.095779 103.667259,185.953918 102.415237,185.611359 
	C101.221237,185.356949 100.609985,185.303253 99.998741,185.249573 
	C99.604309,185.134964 99.209885,185.020355 98.290733,184.684814 
	C97.178467,184.380463 96.590927,184.297043 96.003387,184.213623 
	C95.745255,183.959045 95.487122,183.704468 95.145645,182.968842 
	C94.998032,182.320984 94.933762,182.154144 94.869492,181.987305 
	C94.880386,169.972107 94.891273,157.956894 94.908508,145.220215 
	C94.852577,144.326126 94.790306,144.153519 94.728043,143.980927 
	C94.780273,143.540009 94.832512,143.099106 94.940170,142.006180 
	C94.914490,140.905228 94.833389,140.456299 94.752281,140.007355 
	C94.863434,139.637711 94.974594,139.268066 95.349091,138.618317 
	C95.612434,138.338211 95.972099,138.097977 95.972099,138.097977 
	C95.972099,138.097977 96.320557,138.222931 96.643745,138.441635 
	C97.309425,138.751221 97.651924,138.842087 97.994415,138.932953 
	C97.994415,138.932953 98.276787,139.158310 98.615372,139.404755 
	C99.305832,139.724945 99.657715,139.798660 100.009590,139.872391 
	C100.009590,139.872391 100.313484,140.113144 100.731873,140.400696 
	C102.445702,141.075394 103.741150,141.462524 105.036598,141.849655 
	C105.036598,141.849655 105.415695,142.069931 105.829788,142.306213 
	C106.830315,142.612289 107.416756,142.682083 108.003189,142.751862 
	C108.432503,142.869171 108.861809,142.986481 109.864456,143.346344 
	C111.309258,143.641342 112.180725,143.693802 113.052193,143.746246 
	C116.734047,143.842438 120.415909,143.938629 124.898216,144.002869 
	C126.818382,143.712219 127.938087,143.453537 129.057800,143.194855 
	C129.496185,143.130585 129.934555,143.066299 130.988022,142.936707 
	C132.138016,142.620514 132.672913,142.369659 133.207825,142.118790 
	C133.614075,142.058853 134.020340,141.998901 134.953857,141.829742 
	C135.846939,141.661041 136.090134,141.456055 136.210693,141.105576 
	C156.964874,133.767578 169.626373,111.803749 166.028107,89.381546 
	C162.487289,67.317467 142.967285,50.384167 121.111115,49.902931 
	C112.030014,49.702976 103.838921,52.354908 95.345612,55.743446 
z"/>
<path fill="#C13E4D" opacity="1.000000" stroke="none" 
	d="
M135.494781,115.129471 
	C136.208618,113.196869 137.116531,111.106773 138.323547,109.206673 
	C143.701187,100.741081 143.362732,92.283165 137.169647,83.251251 
	C132.795074,76.871429 122.814613,73.252113 114.565010,75.053894 
	C106.279579,76.863503 99.161316,84.954330 97.871887,93.853416 
	C97.721909,94.888512 96.885529,95.824135 95.992508,96.965744 
	C94.812447,87.589424 99.401871,80.851913 107.173012,76.241295 
	C115.986298,71.012375 125.017578,71.460991 133.476089,77.177444 
	C146.525330,85.996422 147.567749,104.335632 135.494781,115.129471 
z"/>
<path fill="#C73444" opacity="1.000000" stroke="none" 
	d="
M203.990784,127.044975 
	C203.996201,125.543755 203.813690,124.013786 204.038208,122.546074 
	C205.303436,114.274506 207.622482,106.034988 207.770477,97.752167 
	C207.988281,85.561134 205.578354,73.593842 200.379883,62.346577 
	C199.573059,60.600941 199.446548,58.540859 199.078278,56.214966 
	C199.151123,55.803741 199.588318,55.834553 199.790070,56.210976 
	C200.234528,56.881313 200.477234,57.175228 200.719925,57.469147 
	C200.996918,58.188461 201.273926,58.907768 201.755432,60.126053 
	C202.271240,61.143814 202.582565,61.662594 202.893875,62.181377 
	C203.143784,62.954411 203.393692,63.727444 203.790649,65.067749 
	C204.241531,66.170647 204.545349,66.706268 204.849182,67.241890 
	C204.849182,67.241890 204.863968,67.647385 204.933197,68.177307 
	C205.592606,70.255707 206.182770,71.804184 206.772949,73.352669 
	C207.148941,75.326546 207.524933,77.300430 207.961899,79.979691 
	C208.339706,81.794556 208.656540,82.904037 208.973389,84.013512 
	C208.983887,84.460594 208.994385,84.907669 209.018860,86.135635 
	C209.129257,93.636124 209.225647,100.355728 209.322037,107.075333 
	C209.169785,108.111420 209.017532,109.147499 208.660919,110.812454 
	C208.392532,112.301514 208.328522,113.161720 208.264496,114.021919 
	C207.791672,116.006989 207.318863,117.992058 206.602570,120.569473 
	C206.237488,121.774391 206.115891,122.386963 205.790619,123.262512 
	C205.392288,124.350220 205.197617,125.174973 205.002945,125.999718 
	C205.002945,125.999718 204.837891,126.363152 204.635132,126.633041 
	C204.432358,126.902931 203.990784,127.044975 203.990784,127.044975 
z"/>
<path fill="#BC3344" opacity="1.000000" stroke="none" 
	d="
M157.152664,15.827270 
	C153.375458,14.811096 149.511826,14.038456 145.836807,12.734320 
	C133.478226,8.348688 120.686790,8.832785 107.452095,8.785473 
	C106.999146,8.539749 107.031761,8.063877 107.031761,8.063877 
	C107.031761,8.063877 106.942482,7.923666 107.313339,7.916412 
	C109.133636,7.642265 110.583076,7.375372 112.032509,7.108479 
	C113.739441,7.075275 115.446365,7.042071 117.944733,7.023870 
	C119.492645,6.978086 120.249115,6.917298 121.005585,6.856511 
	C122.385605,6.932837 123.765625,7.009164 125.868622,7.294529 
	C128.414978,7.585897 130.238373,7.668227 132.061752,7.750557 
	C132.758621,7.865828 133.455475,7.981098 134.810364,8.321439 
	C138.295029,9.056780 141.121674,9.567052 143.948318,10.077324 
	C143.948318,10.077324 143.995468,9.999359 144.152252,10.260891 
	C144.879440,10.607632 145.449875,10.692842 146.020294,10.778052 
	C146.020294,10.778052 146.437454,11.001076 146.863617,11.253876 
	C147.865616,11.588820 148.441452,11.670963 149.017288,11.753107 
	C149.017288,11.753106 149.452301,11.982824 149.881119,12.240343 
	C150.879120,12.609303 151.448288,12.720745 152.017471,12.832186 
	C152.017471,12.832186 152.382629,13.060254 152.805267,13.350648 
	C154.497208,14.073165 155.766495,14.505287 157.035797,14.937412 
	C157.035797,14.937413 157.022064,15.005836 157.061188,15.199205 
	C157.100311,15.392574 157.152664,15.827270 157.152664,15.827270 
z"/>
<path fill="#BF3645" opacity="1.000000" stroke="none" 
	d="
M106.058060,115.949577 
	C109.649597,116.980385 113.271515,118.938194 116.825462,118.821747 
	C121.979019,118.652908 127.083466,116.985291 132.606262,116.218887 
	C133.009644,116.672173 133.015625,116.863503 133.021606,117.054840 
	C124.262924,123.126083 115.383392,122.680496 106.220078,117.009583 
	C106.034828,116.297173 106.046448,116.123375 106.058060,115.949577 
z"/>
<path fill="#C73444" opacity="1.000000" stroke="none" 
	d="
M178.988800,162.989624 
	C179.330887,162.065506 179.461426,160.970825 180.047729,160.243607 
	C186.038986,152.812073 192.104324,145.440262 198.572327,138.026276 
	C198.995697,138.000809 199.210526,138.201889 199.157791,138.547516 
	C198.575531,140.181290 198.045990,141.469437 197.516464,142.757599 
	C197.269043,142.926346 197.096222,143.152191 196.684601,143.805466 
	C195.895996,145.104202 195.420761,146.032593 194.945526,146.960968 
	C194.945526,146.960968 194.997864,147.000275 194.739990,147.060303 
	C194.383698,147.431183 194.285294,147.742050 194.186890,148.052902 
	C193.815353,148.458633 193.443817,148.864380 192.737625,149.643982 
	C192.276764,150.348709 192.150558,150.679550 192.024353,151.010391 
	C191.086609,152.110596 190.148895,153.210800 188.822510,154.682800 
	C188.296204,155.372620 188.158585,155.690643 188.020966,156.008667 
	C187.470032,156.568436 186.919083,157.128204 185.939728,158.025284 
	C184.759140,159.276749 184.006973,160.190918 183.254791,161.105072 
	C182.629593,161.620621 182.004410,162.136185 180.987061,162.941635 
	C180.318512,163.402023 180.038376,163.566116 179.563110,163.540207 
	C179.244110,163.234268 179.116455,163.111954 178.988800,162.989624 
z"/>
<path fill="#FBD4D8" opacity="1.000000" stroke="none" 
	d="
M183.128479,34.838650 
	C179.546921,31.413090 175.965378,27.987532 172.321991,24.232571 
	C179.396225,25.266890 182.710526,31.297491 187.077057,36.476280 
	C187.074020,36.913074 186.903671,37.095585 186.618576,36.962273 
	C185.578003,36.520489 184.822540,36.212017 184.067062,35.903549 
	C184.067062,35.903549 184.008347,35.959167 184.015381,35.686745 
	C183.724426,35.222431 183.426453,35.030540 183.128479,34.838650 
z"/>
<path fill="#FBD4D8" opacity="1.000000" stroke="none" 
	d="
M209.686096,106.938171 
	C209.225647,100.355728 209.129257,93.636124 209.125214,86.455643 
	C212.051422,92.827888 211.439453,99.798897 209.686096,106.938171 
z"/>
<path fill="#C73444" opacity="1.000000" stroke="none" 
	d="
M165.225800,174.229950 
	C168.195892,171.333939 171.096893,168.361542 174.171326,165.580902 
	C175.341507,164.522522 176.909988,163.904541 178.642883,163.037750 
	C179.116455,163.111954 179.244110,163.234268 179.358627,163.801361 
	C175.797791,167.108978 172.250076,169.971863 168.702362,172.834717 
	C168.237610,173.080521 167.772873,173.326324 166.855865,173.795502 
	C166.011002,174.089249 165.618393,174.159607 165.225800,174.229950 
z"/>
<path fill="#C73444" opacity="1.000000" stroke="none" 
	d="
M199.213684,55.561264 
	C197.745956,54.665039 195.910095,53.707264 194.938141,52.194431 
	C192.755478,48.797150 191.001724,45.124298 189.411438,41.269299 
	C190.071198,41.140701 190.392838,41.306438 190.714493,41.472183 
	C190.985275,41.895840 191.256058,42.319500 191.748734,43.167625 
	C192.355606,43.982273 192.740616,44.372448 193.125626,44.762627 
	C193.125626,44.762623 193.094208,44.899139 193.172714,45.156532 
	C193.386719,45.755024 193.636658,45.947704 194.001038,45.991962 
	C194.001038,45.991962 193.999374,46.000160 194.025513,46.277569 
	C194.320435,46.790840 194.589218,47.026699 194.858002,47.262558 
	C195.085999,47.740978 195.314011,48.219395 195.783951,49.169010 
	C196.650024,50.461357 197.274170,51.282505 197.898331,52.103653 
	C197.898331,52.103653 197.977417,51.992329 197.925018,52.341095 
	C198.231781,53.135162 198.590927,53.580467 198.950073,54.025772 
	C199.045929,54.433109 199.141785,54.840446 199.213684,55.561264 
z"/>
<path fill="#FDDADE" opacity="1.000000" stroke="none" 
	d="
M169.107239,172.888748 
	C172.250076,169.971863 175.797791,167.108978 179.549988,163.984955 
	C180.038376,163.566116 180.318512,163.402023 180.837219,163.209015 
	C179.098663,168.661606 174.855774,171.454742 169.107239,172.888748 
z"/>
<path fill="#FDDADE" opacity="1.000000" stroke="none" 
	d="
M145.324356,183.957367 
	C148.857224,182.247757 152.809647,180.592621 156.992508,178.683990 
	C157.222931,178.430466 157.218597,178.374817 157.550079,178.346497 
	C158.539322,178.161194 159.197067,178.004211 159.941208,177.940414 
	C160.027588,178.033615 160.195892,178.224030 160.195892,178.224030 
	C155.378571,180.153290 150.561249,182.082565 145.324356,183.957367 
z"/>
<path fill="#FDDADE" opacity="1.000000" stroke="none" 
	d="
M127.060638,187.485260 
	C130.733154,186.493408 134.497833,185.855637 138.664093,185.260468 
	C135.721130,189.090698 131.521912,188.864044 127.060638,187.485260 
z"/>
<path fill="#C84756" opacity="1.000000" stroke="none" 
	d="
M56.602570,32.832031 
	C54.525307,35.879704 52.179981,38.924511 49.526737,42.095886 
	C49.218815,42.222458 48.993763,42.008633 48.946419,41.634308 
	C49.007046,40.908051 49.115017,40.556126 49.222988,40.204197 
	C49.222988,40.204197 49.071274,40.157524 49.424713,40.044777 
	C50.500706,38.942932 51.223251,37.953835 51.945801,36.964741 
	C51.945801,36.964741 51.999413,36.997383 52.228821,36.906517 
	C52.608906,36.529629 52.759579,36.243610 52.910248,35.957588 
	C52.910248,35.957588 52.985077,35.981224 53.205879,35.881676 
	C53.734737,35.591286 53.879356,35.314907 53.860527,34.952988 
	C54.133457,34.732029 54.406387,34.511066 55.038563,34.009647 
	C55.695286,33.549126 55.832561,33.285591 55.809639,32.938595 
	C55.984596,32.902115 56.159554,32.865639 56.602570,32.832031 
z"/>
<path fill="#C73444" opacity="1.000000" stroke="none" 
	d="
M198.885971,137.902802 
	C200.019058,134.900528 201.261856,131.996262 202.889252,129.401688 
	C203.274536,130.159149 203.275223,130.606918 203.275909,131.054688 
	C203.275909,131.054688 203.002823,131.448120 202.733276,131.861389 
	C202.324402,132.851334 202.185059,133.427994 202.045715,134.004669 
	C202.045715,134.004669 201.795563,134.226746 201.547409,134.564697 
	C201.234634,135.270401 201.170029,135.638153 201.105408,136.005905 
	C201.105408,136.005905 200.876617,136.328369 200.625824,136.664215 
	C200.274323,137.344040 200.173599,137.688034 200.072861,138.032028 
	C200.072861,138.032028 199.999924,138.025711 199.811768,138.062485 
	C199.623627,138.099258 199.210526,138.201889 199.210526,138.201889 
	C199.210526,138.201889 198.995697,138.000809 198.885971,137.902802 
z"/>
<path fill="#FCD9DD" opacity="1.000000" stroke="none" 
	d="
M65.843132,23.856861 
	C68.280754,22.220810 70.718384,20.584763 73.518867,19.185425 
	C73.881721,19.422138 73.860146,19.882437 73.860146,19.882437 
	C73.860146,19.882437 73.947723,19.996180 73.605148,19.955177 
	C72.453735,20.544481 71.644905,21.174788 70.836075,21.805096 
	C70.836075,21.805096 70.995110,21.994680 70.676285,21.914696 
	C70.017120,21.945747 69.799324,22.173759 69.704071,22.518745 
	C69.704071,22.518745 69.659775,22.587742 69.339233,22.625252 
	C68.630417,23.045124 68.242142,23.427488 67.853867,23.809851 
	C67.853867,23.809851 67.852325,23.974287 67.553459,23.911083 
	C66.892479,23.963654 66.530373,24.079430 66.088463,24.109192 
	C66.008667,24.023178 65.843132,23.856861 65.843132,23.856861 
z"/>
<path fill="#C84756" opacity="1.000000" stroke="none" 
	d="
M74.250900,19.933767 
	C73.860146,19.882437 73.881721,19.422138 73.901054,19.192486 
	C74.110649,18.914936 74.300903,18.867041 74.937401,18.677254 
	C75.665817,18.434511 75.814766,18.234444 75.830498,17.935158 
	C76.387093,17.698286 76.943680,17.461414 78.005341,17.032940 
	C78.755058,16.604422 78.999702,16.367504 79.244339,16.130585 
	C79.996033,15.828124 80.747726,15.525665 81.995651,15.090218 
	C82.663467,14.978647 82.835037,15.000065 82.998184,15.271379 
	C82.988571,15.687964 82.987396,15.854653 82.986221,16.021339 
	C80.204697,17.342592 77.423172,18.663845 74.250900,19.933767 
z"/>
<path fill="#FBD4D8" opacity="1.000000" stroke="none" 
	d="
M99.079315,9.095496 
	C100.206444,6.030173 101.990822,4.983702 104.839043,7.747645 
	C104.834503,8.276408 104.744667,8.668838 104.744667,8.668838 
	C104.744667,8.668838 104.777580,8.799191 104.422676,8.707586 
	C102.404953,8.775820 100.742134,8.935658 99.079315,9.095496 
z"/>
<path fill="#FDDADE" opacity="1.000000" stroke="none" 
	d="
M165.212845,174.218353 
	C165.618393,174.159607 166.011002,174.089249 166.704041,174.014160 
	C166.506577,177.629684 163.855865,178.048340 160.571320,178.153351 
	C160.195892,178.224030 160.027588,178.033615 160.008087,177.746277 
	C159.988586,177.458954 160.080704,177.058685 160.080704,177.058685 
	C160.080704,177.058685 160.047501,176.996994 160.383087,177.014771 
	C162.202316,176.085342 163.685959,175.138153 165.169601,174.190964 
	C165.169601,174.190964 165.199890,174.206757 165.212845,174.218353 
z"/>
<path fill="#FBD4D8" opacity="1.000000" stroke="none" 
	d="
M143.882568,9.683268 
	C141.121674,9.567052 138.295029,9.056780 135.164124,8.313526 
	C137.845505,8.483432 140.831177,8.886322 143.882568,9.683268 
z"/>
<path fill="#BC3344" opacity="1.000000" stroke="none" 
	d="
M99.074051,9.078526 
	C100.742134,8.935658 102.404953,8.775820 104.483292,8.678528 
	C102.139389,9.456010 99.379974,10.170944 96.215630,10.577646 
	C95.810707,10.269413 95.876869,9.923534 95.876869,9.923534 
	C96.067368,9.918499 96.257858,9.913464 97.007431,9.859860 
	C98.071205,9.568665 98.575912,9.326036 99.080612,9.083408 
	C99.080612,9.083408 99.068787,9.061557 99.074051,9.078526 
z"/>
<path fill="#FDDADE" opacity="1.000000" stroke="none" 
	d="
M113.314690,187.451752 
	C116.696907,187.155594 120.391502,187.117645 124.539673,187.163269 
	C121.204521,187.401215 117.415794,187.555603 113.314690,187.451752 
z"/>
<path fill="#FBD4D8" opacity="1.000000" stroke="none" 
	d="
M131.956421,7.409273 
	C130.238373,7.668227 128.414978,7.585897 126.283554,7.276800 
	C127.934044,7.056018 129.892563,7.062004 131.956421,7.409273 
z"/>
<path fill="#C84756" opacity="1.000000" stroke="none" 
	d="
M63.483002,26.799088 
	C62.425331,28.187637 61.068279,29.609463 59.341511,30.755680 
	C58.971798,30.480072 58.959972,29.981329 58.959972,29.981329 
	C58.959972,29.981329 59.001640,29.999201 59.275738,29.897709 
	C60.072544,29.217741 60.595257,28.639267 61.117970,28.060795 
	C61.806519,27.651316 62.495071,27.241838 63.483002,26.799088 
z"/>
<path fill="#BC3344" opacity="1.000000" stroke="none" 
	d="
M83.339920,15.883023 
	C82.987396,15.854653 82.988571,15.687964 83.139374,15.095026 
	C83.288994,14.668776 83.470123,14.254885 83.470123,14.254885 
	C83.818817,14.173564 84.167503,14.092244 85.005882,13.892776 
	C85.737900,13.554337 85.980232,13.334044 86.222565,13.113750 
	C86.870316,12.972445 87.518066,12.831141 88.496613,12.718723 
	C87.116150,13.746642 85.404884,14.745674 83.339920,15.883023 
z"/>
<path fill="#FBD4D8" opacity="1.000000" stroke="none" 
	d="
M190.772614,41.090046 
	C190.392838,41.306438 190.071198,41.140701 189.487961,40.897072 
	C189.226379,40.819183 189.211716,40.848843 189.144501,40.532295 
	C188.352753,39.175690 187.628220,38.135635 186.903671,37.095581 
	C186.903671,37.095585 187.074020,36.913074 187.156860,36.816998 
	C188.436691,38.049919 189.633698,39.378914 190.772614,41.090046 
z"/>
<path fill="#FBD4D8" opacity="1.000000" stroke="none" 
	d="
M206.881866,73.006989 
	C206.182770,71.804184 205.592606,70.255707 205.041443,68.348900 
	C207.564255,68.792068 208.062561,70.405609 206.881866,73.006989 
z"/>
<path fill="#FBD4D8" opacity="1.000000" stroke="none" 
	d="
M111.842896,6.843239 
	C110.583076,7.375372 109.133636,7.642265 107.311096,7.833333 
	C108.509750,7.364338 110.081512,6.971169 111.842896,6.843239 
z"/>
<path fill="#FBD4D8" opacity="1.000000" stroke="none" 
	d="
M95.579651,9.779991 
	C95.876869,9.923534 95.810707,10.269413 95.795090,10.444897 
	C95.779472,10.620381 95.804146,10.685440 95.499825,10.666599 
	C94.408875,10.983700 93.622238,11.319641 92.835609,11.655584 
	C92.835609,11.655585 92.888374,11.544425 92.701691,11.430033 
	C92.271500,11.339707 92.098289,11.240700 91.995377,11.018616 
	C93.091064,10.557893 94.186752,10.097171 95.579651,9.779991 
z"/>
<path fill="#FDDADE" opacity="1.000000" stroke="none" 
	d="
M141.179794,185.172028 
	C142.047272,184.534882 143.131470,184.177048 144.566956,183.849640 
	C143.744324,184.403824 142.570419,184.927582 141.179794,185.172028 
z"/>
<path fill="#FDDADE" opacity="1.000000" stroke="none" 
	d="
M199.157791,138.547516 
	C199.210526,138.201889 199.623627,138.099258 199.836273,138.089691 
	C199.471436,139.656097 198.893967,141.232071 197.916473,142.782822 
	C198.045990,141.469437 198.575531,140.181290 199.157791,138.547516 
z"/>
<path fill="#C13E4D" opacity="1.000000" stroke="none" 
	d="
M98.127106,108.256317 
	C98.136581,107.912209 98.570213,107.868439 98.889557,108.134735 
	C99.474998,108.593269 99.741104,108.785500 100.007210,108.977722 
	C100.007210,108.977722 100.008041,108.997742 100.033997,109.315277 
	C100.707573,110.425903 101.355202,111.218987 102.002831,112.012070 
	C101.993294,112.215599 101.983757,112.419121 101.885010,112.915321 
	C100.569733,111.672134 99.343681,110.136276 98.127106,108.256317 
z"/>
<path fill="#FBD4D8" opacity="1.000000" stroke="none" 
	d="
M209.229919,83.829849 
	C208.656540,82.904037 208.339706,81.794556 208.095398,80.334137 
	C208.607437,81.204201 209.046936,82.425186 209.229919,83.829849 
z"/>
<path fill="#FDDADE" opacity="1.000000" stroke="none" 
	d="
M104.942184,141.490173 
	C103.741150,141.462524 102.445702,141.075394 100.923904,140.427155 
	C102.080971,140.487610 103.464371,140.809143 104.942184,141.490173 
z"/>
<path fill="#FBD4D8" opacity="1.000000" stroke="none" 
	d="
M156.960114,14.573929 
	C155.766495,14.505287 154.497208,14.073165 153.019318,13.373506 
	C154.168625,13.474128 155.526535,13.842287 156.960114,14.573929 
z"/>
<path fill="#FDDADE" opacity="1.000000" stroke="none" 
	d="
M112.981506,143.436768 
	C112.180725,143.693802 111.309258,143.641342 110.198891,143.359039 
	C110.943604,143.128540 111.927216,143.127914 112.981506,143.436768 
z"/>
<path fill="#FDDADE" opacity="1.000000" stroke="none" 
	d="
M203.623016,130.953873 
	C203.275223,130.606918 203.274536,130.159149 203.257416,129.371826 
	C203.488251,128.553543 203.735504,128.074799 203.986755,127.320511 
	C203.990784,127.044975 204.432358,126.902931 204.653076,126.831802 
	C204.572571,128.124802 204.271332,129.488937 203.623016,130.953873 
z"/>
<path fill="#FCD9DD" opacity="1.000000" stroke="none" 
	d="
M51.570667,36.974312 
	C51.223251,37.953835 50.500706,38.942932 49.497574,40.060600 
	C49.876507,39.120743 50.536018,38.052311 51.570667,36.974312 
z"/>
<path fill="#FBD4D8" opacity="1.000000" stroke="none" 
	d="
M157.141541,15.843561 
	C157.152664,15.827270 157.100311,15.392574 157.085480,15.174147 
	C158.360214,15.325356 159.649796,15.694993 161.039154,16.452677 
	C161.138947,16.840725 161.011688,16.985619 160.672150,16.937359 
	C159.255768,16.538544 158.178940,16.187986 157.102112,15.837428 
	C157.102112,15.837427 157.130402,15.859853 157.141541,15.843561 
z"/>
<path fill="#FDDADE" opacity="1.000000" stroke="none" 
	d="
M128.908966,142.926910 
	C127.938087,143.453537 126.818382,143.712219 125.348343,143.895416 
	C126.252068,143.432938 127.506104,143.045944 128.908966,142.926910 
z"/>
<path fill="#FDDADE" opacity="1.000000" stroke="none" 
	d="
M183.595886,161.084686 
	C184.006973,160.190918 184.759140,159.276749 185.802795,158.289581 
	C185.375168,159.165833 184.656082,160.115067 183.595886,161.084686 
z"/>
<path fill="#FDDADE" opacity="1.000000" stroke="none" 
	d="
M195.305756,146.927734 
	C195.420761,146.032593 195.895996,145.104202 196.649658,144.018768 
	C196.507401,144.872635 196.086685,145.883560 195.305756,146.927734 
z"/>
<path fill="#FBD4D8" opacity="1.000000" stroke="none" 
	d="
M208.519623,113.876297 
	C208.328522,113.161720 208.392532,112.301514 208.689270,111.206177 
	C208.872925,111.890915 208.823837,112.810791 208.519623,113.876297 
z"/>
<path fill="#FDDADE" opacity="1.000000" stroke="none" 
	d="
M205.344208,125.941826 
	C205.197617,125.174973 205.392288,124.350220 206.041840,123.263077 
	C206.664200,123.000298 206.831650,122.999924 206.999115,122.999557 
	C206.561234,123.961014 206.123337,124.922478 205.344208,125.941826 
z"/>
<path fill="#FCD9DD" opacity="1.000000" stroke="none" 
	d="
M48.853096,40.186119 
	C49.115017,40.556126 49.007046,40.908051 48.831146,41.530357 
	C48.367622,42.175354 47.972023,42.549969 47.321476,43.023544 
	C47.538750,42.137684 48.010979,41.152863 48.853096,40.186119 
z"/>
<path fill="#FBD4D8" opacity="1.000000" stroke="none" 
	d="
M170.957260,22.631927 
	C170.087265,22.511490 169.175415,22.046749 168.134735,21.295582 
	C168.975739,21.435312 169.945587,21.861467 170.957260,22.631927 
z"/>
<path fill="#FBD4D8" opacity="1.000000" stroke="none" 
	d="
M167.946274,20.642086 
	C167.050369,20.546188 166.111557,20.094610 165.019562,19.363264 
	C165.878693,19.484465 166.891037,19.885437 167.946274,20.642086 
z"/>
<path fill="#FBD4D8" opacity="1.000000" stroke="none" 
	d="
M197.949707,51.741596 
	C197.274170,51.282505 196.650024,50.461357 196.001465,49.324150 
	C196.651718,49.798576 197.326401,50.589054 197.949707,51.741596 
z"/>
<path fill="#BC3344" opacity="1.000000" stroke="none" 
	d="
M91.859009,11.119795 
	C92.098289,11.240700 92.271500,11.339707 92.648247,11.399553 
	C91.718002,11.984812 90.654510,12.486158 89.194962,12.888027 
	C89.033447,12.533964 89.268005,12.279378 90.012566,11.934242 
	C90.809395,11.637887 91.096230,11.432082 91.383057,11.226278 
	C91.383057,11.226278 91.722633,11.220973 91.859009,11.119795 
z"/>
<path fill="#BF3645" opacity="1.000000" stroke="none" 
	d="
M97.172737,102.936813 
	C97.339287,103.543076 97.505844,104.149345 97.391296,104.921516 
	C97.110191,105.087425 96.853111,105.005898 96.853111,105.005898 
	C96.629845,104.573463 96.406578,104.141022 96.434586,103.343254 
	C96.685867,102.977921 97.172737,102.936813 97.172737,102.936813 
z"/>
<path fill="#FBD4D8" opacity="1.000000" stroke="none" 
	d="
M199.193497,53.860653 
	C198.590927,53.580467 198.231781,53.135162 197.876434,52.389393 
	C198.399139,52.624462 198.918030,53.160000 199.193497,53.860653 
z"/>
<path fill="#C13E4D" opacity="1.000000" stroke="none" 
	d="
M97.135406,102.618149 
	C97.172737,102.936813 96.685867,102.977921 96.441650,102.972092 
	C95.998055,102.422585 95.798683,101.878914 96.015854,101.158646 
	C96.630455,100.993759 96.828514,101.005478 97.026581,101.017189 
	C97.050415,101.444626 97.074242,101.872055 97.135406,102.618149 
z"/>
<path fill="#FDDADE" opacity="1.000000" stroke="none" 
	d="
M105.280785,186.479279 
	C106.207863,186.316437 107.409935,186.395233 108.915085,186.677902 
	C107.997360,186.828171 106.776573,186.774551 105.280785,186.479279 
z"/>
<path fill="#BF3645" opacity="1.000000" stroke="none" 
	d="
M97.245087,100.815338 
	C96.828514,101.005478 96.630455,100.993759 96.135315,100.963821 
	C95.724716,100.518425 95.611206,100.091255 95.602921,99.344864 
	C96.293297,99.554924 96.878448,100.084198 97.245087,100.815338 
z"/>
<path fill="#C13E4D" opacity="1.000000" stroke="none" 
	d="
M106.045166,115.961594 
	C106.046448,116.123375 106.034828,116.297173 106.012810,116.732040 
	C105.172417,116.441948 104.342415,115.890800 103.366432,115.061646 
	C103.220451,114.783653 103.247940,114.754631 103.532104,114.829163 
	C104.207855,114.925529 104.599442,114.947357 104.991020,114.969177 
	C104.991020,114.969177 105.017418,114.980721 105.123543,115.214310 
	C105.431885,115.720726 105.699005,115.892838 106.031044,115.964233 
	C106.031044,115.964233 106.032265,115.973602 106.045166,115.961594 
z"/>
<path fill="#FBD4D8" opacity="1.000000" stroke="none" 
	d="
M120.809471,6.634386 
	C120.249115,6.917298 119.492645,6.978086 118.365051,6.948277 
	C118.867073,6.709208 119.740219,6.560734 120.809471,6.634386 
z"/>
<path fill="#C84756" opacity="1.000000" stroke="none" 
	d="
M92.311653,57.569786 
	C92.526985,57.081509 93.045280,56.579502 93.844330,56.073883 
	C93.621597,56.565533 93.118111,57.060795 92.311653,57.569786 
z"/>
<path fill="#C13E4D" opacity="1.000000" stroke="none" 
	d="
M133.326569,116.997887 
	C133.015625,116.863503 133.009644,116.672173 132.995865,116.192696 
	C133.528244,115.653244 134.068451,115.401939 134.908539,115.149872 
	C134.682800,115.746384 134.157166,116.343658 133.326569,116.997887 
z"/>
<path fill="#FCD9DD" opacity="1.000000" stroke="none" 
	d="
M60.785690,28.067963 
	C60.595257,28.639267 60.072544,29.217741 59.263046,29.878883 
	C59.468643,29.332743 59.961025,28.703936 60.785690,28.067963 
z"/>
<path fill="#FBD4D8" opacity="1.000000" stroke="none" 
	d="
M145.832489,10.546747 
	C145.449875,10.692842 144.879440,10.607632 144.121643,10.294853 
	C144.504395,10.150002 145.074554,10.232722 145.832489,10.546747 
z"/>
<path fill="#FBD4D8" opacity="1.000000" stroke="none" 
	d="
M207.013107,122.621216 
	C206.831650,122.999924 206.664200,123.000298 206.245514,123.000107 
	C206.115891,122.386963 206.237488,121.774391 206.598450,120.951683 
	C206.900909,121.241989 206.964005,121.742432 207.013107,122.621216 
z"/>
<path fill="#FDDADE" opacity="1.000000" stroke="none" 
	d="
M202.309296,133.841583 
	C202.185059,133.427994 202.324402,132.851334 202.713043,132.099991 
	C202.832520,132.509705 202.702682,133.094101 202.309296,133.841583 
z"/>
<path fill="#FDDADE" opacity="1.000000" stroke="none" 
	d="
M100.223297,185.476929 
	C100.609985,185.303253 101.221237,185.356949 102.072464,185.612030 
	C101.690926,185.777039 101.069389,185.740662 100.223297,185.476929 
z"/>
<path fill="#FDDADE" opacity="1.000000" stroke="none" 
	d="
M94.553391,140.158142 
	C94.833389,140.456299 94.914490,140.905228 94.867455,141.679001 
	C94.611038,141.438858 94.482765,140.873901 94.553391,140.158142 
z"/>
<path fill="#FDDADE" opacity="1.000000" stroke="none" 
	d="
M107.800674,142.528687 
	C107.416756,142.682083 106.830315,142.612289 106.048965,142.310776 
	C106.435417,142.154541 107.016792,142.230026 107.800674,142.528687 
z"/>
<path fill="#FDDADE" opacity="1.000000" stroke="none" 
	d="
M96.204636,184.448059 
	C96.590927,184.297043 97.178467,184.380463 97.981964,184.676773 
	C97.600578,184.820618 97.003227,184.751556 96.204636,184.448059 
z"/>
<path fill="#FBD4D8" opacity="1.000000" stroke="none" 
	d="
M162.862427,17.745068 
	C162.641205,17.982864 162.300415,17.962482 161.609161,17.674545 
	C161.258682,17.406992 161.011688,16.985619 161.011688,16.985619 
	C161.011688,16.985619 161.138947,16.840725 161.199524,16.763409 
	C161.754333,16.953024 162.248596,17.219957 162.862427,17.745068 
z"/>
<path fill="#C84756" opacity="1.000000" stroke="none" 
	d="
M105.099564,8.803151 
	C104.744667,8.668838 104.834503,8.276408 104.911942,8.090597 
	C105.446320,7.911550 105.903259,7.918314 106.695984,7.994477 
	C107.031761,8.063877 106.999146,8.539749 106.981163,8.777792 
	C106.460274,8.989712 105.957375,8.963589 105.099564,8.803151 
z"/>
<path fill="#FDDADE" opacity="1.000000" stroke="none" 
	d="
M132.901825,142.062317 
	C132.672913,142.369659 132.138016,142.620514 131.300018,142.820450 
	C131.529892,142.514969 132.062851,142.260406 132.901825,142.062317 
z"/>
<path fill="#FBD4D8" opacity="1.000000" stroke="none" 
	d="
M98.790314,9.025497 
	C98.575912,9.326036 98.071205,9.568665 97.276169,9.762471 
	C97.490562,9.464961 97.995293,9.216273 98.790314,9.025497 
z"/>
<path fill="#C13E4D" opacity="1.000000" stroke="none" 
	d="
M101.829834,113.465866 
	C102.116966,113.248680 102.459061,113.314774 102.972672,113.824814 
	C103.144196,114.268761 103.247940,114.754631 103.247940,114.754631 
	C103.247940,114.754631 103.220451,114.783653 103.208633,114.799698 
	C102.759476,114.460213 102.322136,114.104675 101.829834,113.465866 
z"/>
<path fill="#FBD4D8" opacity="1.000000" stroke="none" 
	d="
M148.825073,11.524833 
	C148.441452,11.670963 147.865616,11.588820 147.098969,11.277308 
	C147.483063,11.130813 148.057953,11.213686 148.825073,11.524833 
z"/>
<path fill="#FBD4D8" opacity="1.000000" stroke="none" 
	d="
M151.837357,12.592257 
	C151.448288,12.720745 150.879120,12.609303 150.126038,12.263048 
	C150.513855,12.136265 151.085541,12.244296 151.837357,12.592257 
z"/>
<path fill="#FBD4D8" opacity="1.000000" stroke="none" 
	d="
M193.101013,44.477142 
	C192.740616,44.372448 192.355606,43.982273 191.962219,43.304611 
	C192.328033,43.408642 192.702225,43.800148 193.101013,44.477142 
z"/>
<path fill="#FBD4D8" opacity="1.000000" stroke="none" 
	d="
M204.911514,66.914108 
	C204.545349,66.706268 204.241531,66.170647 203.970825,65.315491 
	C204.327255,65.526085 204.650543,66.056206 204.911514,66.914108 
z"/>
<path fill="#FBD4D8" opacity="1.000000" stroke="none" 
	d="
M202.943176,61.857788 
	C202.582565,61.662594 202.271240,61.143814 201.977814,60.312515 
	C202.327957,60.511402 202.660217,61.022800 202.943176,61.857788 
z"/>
<path fill="#C84756" opacity="1.000000" stroke="none" 
	d="
M64.905884,25.908409 
	C64.705368,26.200016 64.504852,26.491623 64.026344,26.792053 
	C63.757050,26.631214 63.765747,26.461550 64.098526,26.084595 
	C64.422607,25.877306 64.905884,25.908409 64.905884,25.908409 
z"/>
<path fill="#FDDADE" opacity="1.000000" stroke="none" 
	d="
M194.401016,147.938416 
	C194.285294,147.742050 194.383698,147.431183 194.721970,147.033051 
	C194.988495,147.294647 194.872925,147.587372 194.401016,147.938416 
z"/>
<path fill="#FDDADE" opacity="1.000000" stroke="none" 
	d="
M192.266800,150.890869 
	C192.150558,150.679550 192.276764,150.348709 192.656418,149.911148 
	C192.776321,150.126740 192.642776,150.449051 192.266800,150.890869 
z"/>
<path fill="#FDDADE" opacity="1.000000" stroke="none" 
	d="
M188.261902,155.903107 
	C188.158585,155.690643 188.296204,155.372620 188.689362,154.965332 
	C188.797546,155.183228 188.650192,155.490387 188.261902,155.903107 
z"/>
<path fill="#FCD9DD" opacity="1.000000" stroke="none" 
	d="
M53.648117,35.045597 
	C53.879356,35.314907 53.734737,35.591286 53.190933,35.845398 
	C53.010483,35.586426 53.170654,35.329605 53.648117,35.045597 
z"/>
<path fill="#FCD9DD" opacity="1.000000" stroke="none" 
	d="
M78.983887,16.142269 
	C78.999702,16.367504 78.755058,16.604422 78.245773,16.844452 
	C78.228561,16.616360 78.475998,16.385155 78.983887,16.142269 
z"/>
<path fill="#FCD9DD" opacity="1.000000" stroke="none" 
	d="
M55.609268,33.024342 
	C55.832561,33.285591 55.695286,33.549126 55.170105,33.778854 
	C55.006775,33.529869 55.162273,33.290390 55.609268,33.024342 
z"/>
<path fill="#C84756" opacity="1.000000" stroke="none" 
	d="
M57.951324,31.948860 
	C57.757778,32.241379 57.564232,32.533897 57.097553,32.856792 
	C56.824188,32.715672 56.823952,32.544170 57.138496,32.149975 
	C57.453285,31.927282 57.951324,31.948860 57.951324,31.948860 
z"/>
<path fill="#FCD9DD" opacity="1.000000" stroke="none" 
	d="
M57.961048,31.968731 
	C57.951324,31.948860 57.453285,31.927282 57.205139,31.901508 
	C57.006416,31.544567 57.163277,31.276178 57.673683,30.991581 
	C57.919785,30.912596 58.011864,31.011911 57.973568,31.249859 
	C57.935272,31.487808 57.939423,31.969812 57.939423,31.969812 
	C57.939423,31.969812 57.970772,31.988604 57.961048,31.968731 
z"/>
<path fill="#FCD9DD" opacity="1.000000" stroke="none" 
	d="
M58.725548,30.045776 
	C58.959972,29.981329 58.971798,30.480072 58.970917,30.729481 
	C58.970032,30.978891 59.000023,30.992661 58.748871,30.965736 
	C58.497719,30.938814 58.011864,31.011911 58.011864,31.011911 
	C58.011864,31.011911 57.919785,30.912596 57.872978,30.860588 
	C57.988026,30.518850 58.209675,30.286066 58.725548,30.045776 
z"/>
<path fill="#FCD9DD" opacity="1.000000" stroke="none" 
	d="
M83.181587,14.218326 
	C83.470123,14.254885 83.288994,14.668776 83.147804,14.845129 
	C82.835037,15.000065 82.663467,14.978647 82.238365,14.902158 
	C82.287575,14.625313 82.590309,14.403540 83.181587,14.218326 
z"/>
<path fill="#FDDADE" opacity="1.000000" stroke="none" 
	d="
M94.704178,182.079926 
	C94.933762,182.154144 94.998032,182.320984 94.989685,182.745987 
	C94.791000,182.726944 94.664932,182.449738 94.704178,182.079926 
z"/>
<path fill="#FCD9DD" opacity="1.000000" stroke="none" 
	d="
M59.477924,26.460133 
	C59.525990,26.433468 59.429859,26.486799 59.477924,26.460133 
z"/>
<path fill="#FCD9DD" opacity="1.000000" stroke="none" 
	d="
M64.916367,25.927071 
	C64.905884,25.908409 64.422607,25.877306 64.182541,25.844009 
	C64.016052,25.499290 64.180008,25.246454 64.679565,24.984093 
	C64.924805,24.915979 65.035034,25.032469 64.984222,25.253086 
	C64.933418,25.473701 64.909500,25.925850 64.909500,25.925850 
	C64.909500,25.925850 64.926842,25.945734 64.916367,25.927071 
z"/>
<path fill="#FCD9DD" opacity="1.000000" stroke="none" 
	d="
M64.871124,24.856407 
	C64.998421,24.540300 65.211166,24.313568 65.649399,23.986752 
	C65.843132,23.856861 66.008667,24.023178 65.954735,24.313633 
	C65.656090,24.835552 65.367500,24.978346 65.035034,25.032469 
	C65.035034,25.032469 64.924805,24.915979 64.871124,24.856407 
z"/>
<path fill="#FCD9DD" opacity="1.000000" stroke="none" 
	d="
M75.654724,17.969891 
	C75.814766,18.234444 75.665817,18.434511 75.186859,18.521143 
	C75.081123,18.269514 75.244087,18.102079 75.654724,17.969891 
z"/>
<path fill="#FBD4D8" opacity="1.000000" stroke="none" 
	d="
M91.111816,11.187180 
	C91.096230,11.432082 90.809395,11.637887 90.251289,11.804638 
	C90.266869,11.559750 90.553726,11.353915 91.111816,11.187180 
z"/>
<path fill="#C13E4D" opacity="1.000000" stroke="none" 
	d="
M97.655006,107.235199 
	C97.952286,107.161888 98.073174,107.313019 98.106873,107.676445 
	C97.783974,107.850983 97.603607,107.707947 97.655006,107.235199 
z"/>
<path fill="#C13E4D" opacity="1.000000" stroke="none" 
	d="
M96.773285,105.153503 
	C96.853111,105.005898 97.110191,105.087425 97.238449,105.135780 
	C97.366699,105.184135 97.283806,105.436874 97.221771,105.554688 
	C96.874840,105.710892 96.719406,105.587090 96.773285,105.153503 
z"/>
<path fill="#FCD9DD" opacity="1.000000" stroke="none" 
	d="
M85.972740,13.112803 
	C85.980232,13.334044 85.737900,13.554337 85.240654,13.760084 
	C85.132767,13.419488 85.378494,13.208261 85.972740,13.112803 
z"/>
<path fill="#FDDADE" opacity="1.000000" stroke="none" 
	d="
M201.340179,135.836441 
	C201.170029,135.638153 201.234634,135.270401 201.533524,134.731384 
	C201.703506,134.929062 201.639236,135.298019 201.340179,135.836441 
z"/>
<path fill="#FDDADE" opacity="1.000000" stroke="none" 
	d="
M95.888107,137.909027 
	C95.972099,138.097977 95.612434,138.338211 95.396553,138.332672 
	C95.388489,138.124786 95.596306,137.922424 95.888107,137.909027 
z"/>
<path fill="#FDDADE" opacity="1.000000" stroke="none" 
	d="
M200.313202,137.892395 
	C200.173599,137.688034 200.274323,137.344040 200.617493,136.861725 
	C200.757812,137.066513 200.655685,137.409637 200.313202,137.892395 
z"/>
<path fill="#FDDADE" opacity="1.000000" stroke="none" 
	d="
M97.846054,138.705444 
	C97.651924,138.842087 97.309425,138.751221 96.827866,138.422668 
	C97.025101,138.282639 97.361397,138.380280 97.846054,138.705444 
z"/>
<path fill="#C84756" opacity="1.000000" stroke="none" 
	d="
M90.421402,59.129745 
	C90.339439,58.891102 90.527145,58.587288 90.983536,58.220440 
	C91.065163,58.459797 90.878113,58.762184 90.421402,59.129745 
z"/>
<path fill="#FDDADE" opacity="1.000000" stroke="none" 
	d="
M99.847702,139.647614 
	C99.657715,139.798660 99.305832,139.724945 98.794983,139.423920 
	C98.985947,139.272034 99.335884,139.347443 99.847702,139.647614 
z"/>
<path fill="#FBD4D8" opacity="1.000000" stroke="none" 
	d="
M200.749634,57.166382 
	C200.477234,57.175228 200.234528,56.881313 199.992828,56.294106 
	C200.255661,56.288414 200.517502,56.576015 200.749634,57.166382 
z"/>
<path fill="#FBD4D8" opacity="1.000000" stroke="none" 
	d="
M194.838348,46.985115 
	C194.589218,47.026699 194.320435,46.790840 194.029266,46.277908 
	C194.277481,46.236454 194.548096,46.472061 194.838348,46.985115 
z"/>
<path fill="#FDDADE" opacity="1.000000" stroke="none" 
	d="
M135.967758,141.095886 
	C136.090134,141.456055 135.846939,141.661041 135.233398,141.697113 
	C135.138153,141.359726 135.384537,141.163895 135.967758,141.095886 
z"/>
<path fill="#FBD4D8" opacity="1.000000" stroke="none" 
	d="
M193.964691,45.758232 
	C193.636658,45.947704 193.386719,45.755024 193.241943,45.167213 
	C193.557983,45.014229 193.789871,45.215561 193.964691,45.758232 
z"/>
<path fill="#FCD9DD" opacity="1.000000" stroke="none" 
	d="
M52.688820,36.050514 
	C52.759579,36.243610 52.608906,36.529629 52.214752,36.878460 
	C52.024334,36.605480 52.189705,36.339539 52.688820,36.050514 
z"/>
<path fill="#FDDADE" opacity="1.000000" stroke="none" 
	d="
M94.576706,144.076965 
	C94.790306,144.153519 94.852577,144.326126 94.826691,144.759567 
	C94.634155,144.737946 94.529762,144.455460 94.576706,144.076965 
z"/>
<path fill="#C73444" opacity="1.000000" stroke="none" 
	d="
M186.618576,36.962269 
	C187.628220,38.135635 188.352753,39.175690 189.131622,40.527832 
	C187.472382,39.431873 185.758820,38.023819 184.056152,36.259659 
	C184.822540,36.212017 185.578003,36.520489 186.618576,36.962269 
z"/>
<path fill="#C73444" opacity="1.000000" stroke="none" 
	d="
M164.778259,174.117889 
	C163.685959,175.138153 162.202316,176.085342 160.378906,177.049530 
	C161.488388,176.059296 162.937653,175.052063 164.778259,174.117889 
z"/>
<path fill="#BC3344" opacity="1.000000" stroke="none" 
	d="
M160.672150,16.937359 
	C161.011688,16.985619 161.258682,17.406992 161.350616,17.634251 
	C160.012421,17.451656 158.582291,17.041805 157.127136,16.234692 
	C158.178940,16.187986 159.255768,16.538544 160.672150,16.937359 
z"/>
<path fill="#C84756" opacity="1.000000" stroke="none" 
	d="
M71.203789,21.872244 
	C71.644905,21.174788 72.453735,20.544481 73.578857,19.888393 
	C73.120598,20.554871 72.346054,21.247131 71.203789,21.872244 
z"/>
<path fill="#C84756" opacity="1.000000" stroke="none" 
	d="
M64.984222,25.253086 
	C65.367500,24.978346 65.656090,24.835552 66.034531,24.399647 
	C66.530373,24.079430 66.892479,23.963654 67.539474,23.829704 
	C67.098145,24.536016 66.371933,25.260500 65.277603,25.955416 
	C64.909500,25.925850 64.933418,25.473701 64.984222,25.253086 
z"/>
<path fill="#BC3344" opacity="1.000000" stroke="none" 
	d="
M93.186188,11.780905 
	C93.622238,11.319641 94.408875,10.983700 95.530579,10.682875 
	C95.089355,11.114069 94.313065,11.510149 93.186188,11.780905 
z"/>
<path fill="#C33A4A" opacity="1.000000" stroke="none" 
	d="
M159.721893,177.013229 
	C160.080704,177.058685 159.988586,177.458954 159.921707,177.653076 
	C159.197067,178.004211 158.539322,178.161194 157.543274,178.319427 
	C157.924332,177.869705 158.643692,177.418732 159.721893,177.013229 
z"/>
<path fill="#C84756" opacity="1.000000" stroke="none" 
	d="
M68.181030,23.854967 
	C68.242142,23.427488 68.630417,23.045124 69.298401,22.621498 
	C69.221481,23.020184 68.864838,23.460133 68.181030,23.854967 
z"/>
<path fill="#C84756" opacity="1.000000" stroke="none" 
	d="
M57.973568,31.249859 
	C58.011864,31.011911 58.497719,30.938814 58.743103,30.952095 
	C58.810020,31.256779 58.631557,31.548183 58.196259,31.904701 
	C57.939423,31.969812 57.935272,31.487808 57.973568,31.249859 
z"/>
<path fill="#C84756" opacity="1.000000" stroke="none" 
	d="
M69.975601,22.583321 
	C69.799324,22.173759 70.017120,21.945747 70.602486,21.815399 
	C70.647385,22.080025 70.447258,22.363960 69.975601,22.583321 
z"/>
<path fill="#C73444" opacity="1.000000" stroke="none" 
	d="
M183.193893,35.093918 
	C183.426453,35.030540 183.724426,35.222431 184.055801,35.687660 
	C183.812576,35.757057 183.535934,35.553120 183.193893,35.093918 
z"/>
<path fill="#BF3645" opacity="1.000000" stroke="none" 
	d="
M101.995949,111.659592 
	C101.355202,111.218987 100.707573,110.425903 100.043312,109.310349 
	C100.680809,109.760956 101.334938,110.534035 101.995949,111.659592 
z"/>
<path fill="#BF3645" opacity="1.000000" stroke="none" 
	d="
M103.532104,114.829163 
	C103.247940,114.754631 103.144196,114.268761 103.160446,114.018982 
	C103.682686,114.008736 104.188675,114.248260 104.842850,114.728485 
	C104.599442,114.947357 104.207855,114.925529 103.532104,114.829163 
z"/>
<path fill="#BF3645" opacity="1.000000" stroke="none" 
	d="
M99.903198,108.750443 
	C99.741104,108.785500 99.474998,108.593269 99.104218,108.172302 
	C99.266075,108.136772 99.532631,108.329971 99.903198,108.750443 
z"/>
<path fill="#BF3645" opacity="1.000000" stroke="none" 
	d="
M105.920547,115.751556 
	C105.699005,115.892838 105.431885,115.720726 105.130417,115.226959 
	C105.351707,115.094620 105.611336,115.272232 105.920547,115.751556 
z"/>
</svg>